      <svg
        version="1.0"
        xmlns="http://www.w3.org/2000/svg"
        viewBox="0 0 1639.000000 517.000000"
        preserveAspectRatio="xMidYMid meet"
      >
        <metadata>
          Created by potrace 1.16, written by Peter Selinger 2001-2019
        </metadata>
        <g
          transform="translate(0.000000,517.000000) scale(0.100000,-0.100000)"
          fill="#000000"
          stroke="none"
        >
          <path
            d="M3305 4873 c-33 -9 -66 -35 -76 -60 -5 -13 -16 -23 -25 -23 -10 0
-14 5 -10 16 12 31 -16 1 -30 -32 -31 -74 -7 -175 54 -226 56 -47 96 -54 204
-35 71 13 126 98 115 179 -13 100 -146 204 -232 181z"
          />
          <path
            d="M2532 4800 c-37 -9 -72 -36 -72 -57 0 -19 -30 -29 -40 -13 -13 22
-41 -46 -42 -100 0 -118 94 -210 204 -197 102 12 138 29 163 77 49 95 9 204
-99 269 -40 24 -73 30 -114 21z"
          />
          <path
            d="M4022 4635 c-18 -8 -40 -28 -50 -45 -19 -33 -39 -39 -44 -12 -2 12
-8 7 -21 -20 -20 -43 -22 -126 -3 -171 28 -69 127 -125 200 -114 128 20 172
64 170 174 0 68 -39 125 -114 171 -59 35 -88 39 -138 17z"
          />
          <path
            d="M1850 4541 c-36 -9 -54 -22 -75 -53 -18 -29 -49 -39 -39 -13 4 8 3
15 0 15 -4 0 -16 -19 -26 -43 -38 -85 -9 -187 69 -242 36 -26 51 -30 99 -28
113 3 158 22 186 80 18 37 21 108 7 146 -17 43 -74 99 -126 123 -53 25 -55 25
-95 15z"
          />
          <path
            d="M2773 4230 c-86 -20 -131 -39 -152 -64 -8 -9 -29 -16 -50 -16 -20 0
-51 -9 -70 -21 -37 -23 -145 -59 -176 -59 -18 0 -107 -31 -200 -69 -22 -9 -54
-29 -72 -44 -18 -16 -36 -26 -41 -23 -5 3 -40 -20 -78 -51 -195 -159 -400
-408 -538 -655 -37 -67 -36 -89 5 -68 29 16 32 8 13 -39 -11 -28 -22 -41 -35
-41 -24 0 -61 -57 -93 -142 -88 -234 -106 -689 -37 -958 77 -306 259 -569 501
-728 52 -34 107 -71 122 -82 35 -27 155 -81 261 -119 129 -45 309 -82 432 -88
99 -5 115 -3 162 17 29 12 51 26 48 30 -3 4 2 13 10 20 11 10 18 9 30 -4 22
-22 56 -12 128 36 31 21 62 36 68 32 7 -4 9 -24 6 -51 l-5 -44 47 6 c109 15
164 33 312 106 88 43 166 75 176 73 10 -3 47 12 82 33 235 140 557 508 676
773 170 378 203 675 120 1074 -65 311 -214 605 -450 884 l-88 103 -138 69
c-93 45 -156 70 -191 75 -29 3 -91 16 -138 27 -77 18 -140 21 -315 16 -5 -1
-64 2 -130 5 -98 5 -135 3 -202 -13z m237 -531 c174 -27 325 -107 477 -253
112 -106 184 -199 275 -351 185 -309 246 -519 235 -804 -5 -158 -28 -247 -101
-404 -36 -79 -58 -110 -113 -165 -91 -91 -161 -150 -263 -221 -77 -55 -88 -60
-125 -55 -22 3 -69 -1 -105 -9 -81 -18 -414 -8 -557 17 -593 105 -902 462
-963 1111 -10 102 -9 134 5 215 60 349 190 632 306 668 19 6 56 13 82 17 41 5
59 16 115 67 91 83 127 105 229 142 85 31 93 32 263 34 96 1 204 -3 240 -9z"
          />
          <path
            d="M2838 2929 c-63 -10 -148 -61 -148 -88 0 -6 -4 -11 -8 -11 -4 0 -12
-15 -17 -32 -7 -23 -16 -33 -30 -33 -11 0 -26 -4 -32 -8 -17 -11 -16 11 1 46
20 38 2 34 -28 -6 -59 -77 -82 -228 -51 -336 45 -155 173 -259 351 -284 73
-11 77 -10 126 16 36 20 54 24 63 17 17 -14 40 -4 108 47 63 48 96 102 117
190 37 158 -74 351 -255 444 -77 40 -125 49 -197 38z"
          />
          <path
            d="M1239 4065 c-14 -7 -30 -25 -37 -39 -12 -28 -49 -38 -38 -10 12 31
-16 1 -30 -32 -30 -72 -13 -163 42 -217 54 -54 89 -61 220 -45 35 5 92 56 104
94 28 84 -11 177 -100 234 -52 34 -116 40 -161 15z"
          />
          <path
            d="M4491 4034 c-17 -14 -31 -32 -31 -40 0 -8 -9 -14 -20 -14 -13 0 -18
5 -14 15 11 27 -5 16 -21 -16 -49 -93 -12 -219 76 -265 48 -24 113 -33 147
-18 17 7 33 10 36 7 3 -3 20 4 39 16 73 45 90 171 32 246 -69 91 -181 122
-244 69z"
          />
          <path d="M12790 3380 l0 -240 335 0 335 0 0 240 0 240 -335 0 -335 0 0 -240z" />
          <path
            d="M853 3441 c-17 -11 -34 -28 -37 -39 -4 -11 -16 -22 -27 -25 -15 -4
-19 -2 -15 9 10 25 -3 15 -18 -15 -50 -96 -10 -214 89 -264 49 -24 111 -31
135 -14 12 8 29 13 38 10 10 -2 33 10 54 29 91 84 63 221 -60 299 -55 35 -112
38 -159 10z"
          />
          <path
            d="M4769 3335 c-14 -7 -30 -25 -37 -39 -12 -28 -49 -38 -38 -10 12 31
-16 1 -30 -32 -34 -82 -5 -194 63 -238 54 -36 126 -50 161 -32 15 7 32 11 39
9 21 -8 80 46 97 88 20 50 20 80 0 127 -44 106 -174 171 -255 127z"
          />
          <path
            d="M9440 2969 c-291 -33 -504 -128 -597 -268 -46 -67 -68 -129 -81 -228
l-9 -63 321 0 321 0 20 52 c24 63 62 92 143 109 71 14 180 5 238 -21 90 -39
112 -145 43 -209 -36 -33 -101 -49 -314 -76 -240 -30 -404 -59 -493 -87 -248
-75 -372 -237 -372 -484 0 -154 45 -259 155 -363 60 -57 124 -90 225 -118 99
-27 376 -24 484 5 103 29 205 78 288 141 37 28 69 51 72 51 2 0 7 -12 10 -27
3 -16 10 -54 16 -85 l11 -58 345 0 c242 0 344 3 344 11 0 6 -15 28 -33 50 -19
21 -39 56 -45 78 -9 27 -12 194 -12 562 0 289 -5 555 -10 594 -35 250 -236
395 -602 434 -112 13 -358 12 -468 0z m430 -1072 c0 -157 -40 -231 -158 -289
-60 -30 -75 -33 -157 -33 -72 0 -98 4 -130 21 -107 56 -103 209 8 263 23 11
102 34 176 51 73 17 157 39 185 49 79 28 76 31 76 -62z"
          />
          <path
            d="M5430 2959 c-406 -47 -693 -296 -777 -673 -10 -47 -15 -120 -15 -216
0 -122 4 -160 25 -241 106 -408 448 -639 943 -639 273 0 506 74 677 215 134
110 208 248 242 448 l6 37 -335 0 -335 0 -17 -60 c-20 -71 -71 -135 -128 -161
-28 -13 -65 -19 -117 -19 -65 0 -85 4 -130 28 -64 33 -113 93 -134 165 -41
138 -38 374 6 492 40 108 123 173 231 182 73 7 135 -10 183 -50 39 -32 85
-115 85 -154 l0 -23 340 0 340 0 -6 33 c-48 267 -177 439 -415 552 -169 80
-425 112 -669 84z"
          />
          <path
            d="M7450 2959 c-115 -14 -203 -40 -305 -88 -182 -87 -314 -217 -400
-395 -71 -148 -102 -315 -90 -486 32 -434 323 -728 782 -790 58 -8 148 -11
245 -7 217 7 334 36 495 122 178 94 285 207 341 358 12 32 22 60 22 62 0 3
-143 5 -319 5 l-319 0 -26 -35 c-15 -19 -48 -47 -74 -62 -43 -26 -55 -28 -152
-28 -95 0 -111 3 -162 28 -32 16 -73 47 -93 69 -40 47 -75 133 -75 183 l0 35
636 0 637 0 -6 123 c-10 217 -78 413 -200 572 -193 253 -556 382 -937 334z
m309 -419 c93 -41 171 -153 171 -247 l0 -23 -305 0 c-254 0 -305 2 -305 14 0
8 9 43 20 78 31 102 104 173 205 199 49 13 159 2 214 -21z"
          />
          <path
            d="M11770 2955 c-43 -8 -109 -31 -160 -56 -70 -35 -101 -59 -177 -136
l-93 -94 0 126 0 125 -305 0 -305 0 0 -840 0 -840 335 0 334 0 3 508 c3 571 0
548 81 630 101 103 294 90 367 -25 45 -71 50 -130 50 -641 l0 -472 336 0 335
0 -4 603 c-3 517 -6 612 -20 672 -53 223 -205 379 -418 430 -94 22 -269 28
-359 10z"
          />
          <path
            d="M14475 2963 c-443 -40 -751 -305 -821 -705 -12 -69 -15 -128 -11
-228 6 -155 23 -230 79 -350 155 -335 489 -506 947 -487 295 12 491 88 662
257 72 70 93 100 127 170 37 78 72 199 72 249 0 21 -4 21 -334 21 l-334 0 -7
-37 c-8 -45 -46 -122 -72 -145 -38 -35 -106 -58 -172 -58 -93 0 -138 17 -198
75 -68 67 -92 142 -100 310 -7 149 8 250 48 332 60 124 188 180 324 142 61
-17 129 -91 150 -162 l16 -57 336 0 335 0 -7 48 c-43 290 -255 513 -561 591
-136 34 -327 48 -479 34z"
          />
          <path d="M12790 2080 l0 -840 335 0 335 0 0 840 0 840 -335 0 -335 0 0 -840z" />
          <path
            d="M716 2720 c-34 -11 -66 -38 -66 -57 0 -19 -30 -29 -40 -13 -14 22
-40 -44 -40 -100 0 -87 54 -163 135 -190 33 -11 60 -10 137 3 42 8 86 47 104
94 34 88 -7 181 -106 241 -56 33 -75 36 -124 22z"
          />
          <path
            d="M770 1983 c-19 -10 -40 -29 -47 -42 -13 -27 -49 -40 -39 -15 12 31
-16 1 -30 -32 -44 -106 15 -227 129 -264 34 -11 59 -10 134 4 37 7 91 56 104
93 18 56 7 128 -28 171 -70 86 -156 119 -223 85z"
          />
          <path
            d="M4390 1642 c-33 -5 -80 -39 -80 -58 0 -20 -30 -30 -40 -14 -13 22
-41 -46 -42 -100 0 -60 32 -132 70 -158 61 -42 99 -48 202 -30 92 16 144 128
102 219 -25 53 -36 67 -84 103 -40 30 -87 44 -128 38z"
          />
          <path
            d="M1151 1342 c-35 -5 -71 -32 -82 -59 -5 -13 -16 -23 -25 -23 -10 0
-14 5 -10 16 12 31 -16 1 -30 -32 -32 -76 -6 -187 53 -230 61 -44 98 -50 204
-32 73 13 128 98 115 180 -16 101 -133 194 -225 180z"
          />
          <path
            d="M3895 1113 c-32 -9 -66 -35 -76 -60 -5 -13 -16 -23 -25 -23 -10 0
-14 5 -10 16 12 31 -16 1 -30 -32 -31 -74 -7 -175 54 -226 56 -47 96 -54 204
-35 39 7 88 47 104 86 40 95 -9 201 -118 257 -47 24 -64 27 -103 17z"
          />
          <path
            d="M1745 913 c-38 -8 -67 -27 -81 -55 -15 -29 -51 -41 -40 -13 13 34 -6
12 -24 -27 -62 -137 48 -295 192 -274 24 3 52 7 63 8 31 2 86 47 101 84 16 38
18 102 5 137 -17 43 -74 99 -126 123 -51 24 -55 25 -90 17z"
          />
          <path
            d="M14848 895 c-108 -35 -159 -156 -103 -242 21 -32 79 -59 186 -88 99
-26 119 -37 119 -66 0 -46 -108 -49 -147 -4 -20 23 -28 25 -108 25 -95 0 -96
-1 -65 -65 24 -49 59 -77 124 -99 53 -18 172 -21 227 -6 117 33 178 141 133
235 -26 56 -69 77 -256 125 -33 9 -49 19 -54 33 -15 48 80 66 120 22 21 -23
31 -25 105 -25 93 0 97 5 58 75 -33 60 -97 88 -206 92 -56 2 -102 -2 -133 -12z"
          />
          <path
            d="M4889 873 c-6 -16 -48 -127 -94 -248 -46 -121 -88 -233 -94 -248
l-11 -28 92 3 92 3 10 33 9 32 98 0 98 0 9 -32 8 -33 93 -3 c73 -2 92 0 89 10
-3 7 -49 131 -104 276 l-98 262 -93 0 c-93 0 -94 0 -104 -27z"
          />
          <path d="M6270 620 l0 -280 100 0 100 0 0 280 0 280 -100 0 -100 0 0 -280z" />
          <path
            d="M7480 626 l0 -276 90 0 90 0 0 95 0 95 65 0 c87 0 105 -17 105 -99 0
-92 -2 -91 106 -91 56 0 94 4 94 10 0 6 -4 10 -9 10 -4 0 -11 39 -14 86 -5 90
-23 125 -70 140 -17 5 -15 9 17 36 82 67 66 192 -31 239 -44 22 -64 24 -245
27 l-198 4 0 -276z m334 131 c11 -8 19 -26 19 -42 0 -41 -26 -55 -105 -55
l-68 0 0 55 0 55 68 0 c41 0 75 -5 86 -13z"
          />
          <path
            d="M9020 625 l0 -275 225 0 225 0 0 70 0 70 -130 0 -130 0 0 205 0 205
-95 0 -95 0 0 -275z"
          />
          <path d="M10460 620 l0 -280 100 0 100 0 0 280 0 280 -100 0 -100 0 0 -280z" />
          <path
            d="M11680 625 l0 -275 85 0 85 0 0 140 c0 77 3 140 8 140 4 0 50 -63
101 -140 l95 -140 88 0 88 0 0 275 0 275 -90 0 -89 0 -3 -146 -3 -147 -98 147
-97 146 -85 0 -85 0 0 -275z"
          />
          <path
            d="M13260 625 l0 -275 235 0 235 0 0 65 0 65 -150 0 -150 0 0 45 0 45
125 0 125 0 0 60 0 60 -125 0 -125 0 0 40 0 40 145 0 145 0 0 65 0 65 -230 0
-230 0 0 -275z"
          />
          <path
            d="M3225 803 c-38 -8 -67 -27 -81 -55 -15 -29 -51 -40 -40 -12 12 31
-16 1 -30 -32 -55 -132 58 -290 194 -271 80 12 94 16 126 41 39 29 62 96 53
153 -16 94 -141 193 -222 176z"
          />
          <path
            d="M2485 723 c-38 -8 -67 -27 -81 -55 -15 -29 -51 -40 -40 -12 12 31
-16 1 -30 -32 -18 -42 -18 -115 0 -157 29 -69 122 -124 194 -114 80 12 94 16
126 41 39 29 62 96 53 153 -16 94 -141 193 -222 176z"
          />
        </g>
      </svg>